<svg width="30" height="30" viewBox="0 0 30 30" fill="none" xmlns="http://www.w3.org/2000/svg">
<path d="M4.36305 29.4966L22.614 21.0344L9.57299 7.99341L1.11088 26.2363C0.989529 26.5275 0.5284 27.7006 1.78235 28.817C3.14146 30.0224 4.07181 29.6179 4.36305 29.4966Z" fill="url(#paint0_linear_1_771)"/>
<path d="M7.74401 11.9333L6.3849 14.8861C5.94804 15.9459 13.6982 23.7689 18.0749 23.1379L22.6134 21.0345C17.2336 23.5181 7.08063 13.3733 7.74401 11.9333Z" fill="url(#paint1_linear_1_771)"/>
<path d="M4.99277 17.8874L4.67726 18.5589L3.60939 20.8564C3.6013 21.7625 8.26921 26.4223 11.1897 26.3252L14.8949 24.6102C10.8823 25.3059 4.53164 18.8663 4.99277 17.8874Z" fill="url(#paint2_linear_1_771)"/>
<path d="M1.19922 26.0583C1.58754 26.8349 3.48868 28.728 5.06623 29.1729L8.98178 27.3608L9.00605 27.3446C6.59523 28.4529 2.51789 24.3432 2.44508 23.3886L1.19922 26.0583Z" fill="url(#paint3_linear_1_771)"/>
<path opacity="0.75" d="M4.36305 29.4966L22.614 21.0344L9.57299 7.99341L1.11088 26.2363C0.989529 26.5275 0.5284 27.7006 1.78235 28.817C3.14146 30.0224 4.07181 29.6179 4.36305 29.4966Z" fill="url(#paint4_radial_1_771)"/>
<path opacity="0.75" d="M4.36305 29.4966L22.614 21.0344L9.57299 7.99341L1.11088 26.2363C0.989529 26.5275 0.5284 27.7006 1.78235 28.817C3.14146 30.0224 4.07181 29.6179 4.36305 29.4966Z" fill="url(#paint5_radial_1_771)"/>
<path d="M15.8104 8.05793C15.5919 8.50288 15.1632 8.56761 14.8477 8.47053L15.3654 7.44309C15.3654 7.44309 15.9479 7.57254 15.9641 7.19231L15.9883 7.72624L15.8104 8.05793Z" fill="url(#paint6_linear_1_771)"/>
<path d="M17.2579 2.39511C17.2579 2.39511 17.6301 2.22522 17.8647 1.73982C18.0993 1.25442 16.9424 0.340256 16.9424 0.340256L16.4004 1.28678C16.4004 1.28678 17.3146 1.88544 17.0314 2.08769C16.7402 2.28994 17.2579 2.39511 17.2579 2.39511Z" fill="url(#paint7_linear_1_771)"/>
<path d="M26.7245 10.1777C26.8944 8.68911 25.8912 8.19562 25.5272 8.23607C25.5272 8.23607 25.4625 7.75068 26.1097 7.59697C26.5384 7.49989 27.6306 8.47068 27.3474 9.57092L26.7245 10.1777Z" fill="url(#paint8_linear_1_771)"/>
<path d="M22.7677 20.921C21.8616 21.827 18.205 19.6266 14.5888 16.0184C10.9806 12.4103 8.78016 8.74556 9.68624 7.83948C10.5923 6.93341 14.249 9.13388 17.8652 12.742C21.4733 16.3582 23.6657 20.0149 22.7677 20.921Z" fill="url(#paint9_linear_1_771)"/>
<path d="M22.4605 20.3224C21.7728 21.0101 18.4883 18.842 15.1309 15.4766C11.7736 12.1111 9.59741 8.8347 10.2851 8.14705C10.9727 7.4594 14.2572 9.62751 17.6146 12.9929C20.9719 16.3584 23.1481 19.6348 22.4605 20.3224Z" fill="url(#paint10_linear_1_771)"/>
<path d="M17.8569 1.73991C17.8569 1.73991 17.4362 2.6379 17.3795 2.73498C17.1692 3.09094 16.5786 3.21229 15.5189 3.06667C14.4591 2.92105 14.1516 2.97768 14.1031 2.98577C14.0546 3.00195 13.4316 2.50038 13.4316 2.50038L13.4883 1.9907C13.4883 1.9907 13.6339 1.79654 14.1193 1.86126C14.9849 1.9907 17.5333 2.41947 17.8569 1.73991Z" fill="url(#paint11_linear_1_771)"/>
<path d="M19.9605 16.7629C20.8099 15.7921 21.6028 16.5526 22.1043 15.8568L21.2468 14.9831C20.7452 15.6707 20.0171 15.0235 19.1191 15.9701L19.9605 16.7629Z" fill="url(#paint12_linear_1_771)"/>
<path d="M10.7461 4.98393C11.9191 5.67967 10.8755 6.63429 11.5389 7.17632L12.4531 6.35923C11.7897 5.8172 12.7443 4.87877 11.5713 4.18303L10.7461 4.98393Z" fill="url(#paint13_linear_1_771)"/>
<path d="M23.164 8.58396C23.1964 8.57587 23.2125 8.38172 23.6899 8.04194C24.1672 7.70216 25.2431 8.228 25.3807 8.3089C25.5263 8.3898 25.4049 9.72465 25.4049 9.72465C25.4049 9.72465 24.062 8.29272 23.3905 8.62441C22.7191 8.94801 23.164 8.58396 23.164 8.58396Z" fill="url(#paint14_linear_1_771)"/>
<path d="M23.3427 11.9091C23.3427 11.9091 23.2942 12.435 23.0515 12.6777C22.6147 13.1064 21.9189 12.4592 21.0371 12.6939C21.0371 12.6939 21.4416 11.6664 21.4821 11.5855C21.4821 11.5855 21.838 11.3671 22.2021 11.5774C22.5742 11.7797 22.8978 11.8444 23.1243 11.7231C23.3508 11.6017 23.3427 11.9091 23.3427 11.9091Z" fill="url(#paint15_linear_1_771)"/>
<path d="M25.7136 9.59526C25.7136 9.59526 24.8479 9.99167 24.7347 10.0483C24.6214 10.1049 24.3625 8.09053 24.9855 7.88828C25.6165 7.68603 26.0452 7.61322 26.11 7.60513C26.1747 7.58895 25.0259 7.7103 25.7136 9.59526Z" fill="#FFBF00"/>
<path d="M23.0512 12.6695C23.4071 12.2973 23.8925 11.7472 23.8683 11.5935C23.755 10.6065 22.9541 8.4303 23.6903 8.03389C23.6903 8.03389 23.0026 8.51929 22.7923 8.66491C22.5819 8.81053 22.4282 9.19885 22.4444 9.83796C22.4849 10.9544 23.3748 12.3378 23.0512 12.6695Z" fill="#FFBF00"/>
<path d="M20.5912 4.68457C20.0006 8.83473 15.8828 12.7988 15.8828 12.7988L16.4411 13.6483C16.4411 13.6483 20.9229 8.98035 21.4973 4.81401L20.5912 4.68457Z" fill="url(#paint16_linear_1_771)"/>
<path d="M12.9952 2.95332C12.8981 3.1313 13.1813 3.43063 13.8608 4.2558C14.5404 5.08098 16.304 7.26527 15.8024 8.05809L16.3445 6.94168C16.3445 6.94168 16.3526 6.05178 15.8186 5.18615C14.9773 3.82703 13.3673 2.36275 13.4887 1.9987L12.9952 2.95332Z" fill="url(#paint17_linear_1_771)"/>
<path d="M16.6029 15.5812C16.7859 15.5812 16.9342 15.4328 16.9342 15.2498C16.9342 15.0668 16.7859 14.9184 16.6029 14.9184C16.4198 14.9184 16.2715 15.0668 16.2715 15.2498C16.2715 15.4328 16.4198 15.5812 16.6029 15.5812Z" fill="url(#paint18_linear_1_771)"/>
<path d="M21.224 1.79574C21.407 1.79574 21.5553 1.64737 21.5553 1.46436C21.5553 1.28134 21.407 1.13298 21.224 1.13298C21.0409 1.13298 20.8926 1.28134 20.8926 1.46436C20.8926 1.64737 21.0409 1.79574 21.224 1.79574Z" fill="url(#paint19_linear_1_771)"/>
<path d="M18.1068 6.60946C18.2898 6.60946 18.4381 6.46109 18.4381 6.27808C18.4381 6.09506 18.2898 5.9467 18.1068 5.9467C17.9238 5.9467 17.7754 6.09506 17.7754 6.27808C17.7754 6.46109 17.9238 6.60946 18.1068 6.60946Z" fill="url(#paint20_linear_1_771)"/>
<path d="M20.0736 12.6852C20.2566 12.6852 20.4049 12.5368 20.4049 12.3538C20.4049 12.1708 20.2566 12.0224 20.0736 12.0224C19.8905 12.0224 19.7422 12.1708 19.7422 12.3538C19.7422 12.5368 19.8905 12.6852 20.0736 12.6852Z" fill="url(#paint21_linear_1_771)"/>
<path d="M28.599 11.8761C28.782 11.8761 28.9303 11.7277 28.9303 11.5447C28.9303 11.3617 28.782 11.2133 28.599 11.2133C28.4159 11.2133 28.2676 11.3617 28.2676 11.5447C28.2676 11.7277 28.4159 11.8761 28.599 11.8761Z" fill="url(#paint22_linear_1_771)"/>
<path d="M26.4876 18.8736C26.6706 18.8736 26.819 18.7253 26.819 18.5423C26.819 18.3592 26.6706 18.2109 26.4876 18.2109C26.3046 18.2109 26.1562 18.3592 26.1562 18.5423C26.1562 18.7253 26.3046 18.8736 26.4876 18.8736Z" fill="url(#paint23_linear_1_771)"/>
<path d="M25.1046 14.6023C25.2876 14.6023 25.436 14.454 25.436 14.271C25.436 14.0879 25.2876 13.9396 25.1046 13.9396C24.9216 13.9396 24.7732 14.0879 24.7732 14.271C24.7732 14.454 24.9216 14.6023 25.1046 14.6023Z" fill="url(#paint24_linear_1_771)"/>
<path d="M26.9271 5.58992C27.1101 5.58992 27.2585 5.44156 27.2585 5.25855C27.2585 5.07553 27.1101 4.92717 26.9271 4.92717C26.7441 4.92717 26.5957 5.07553 26.5957 5.25855C26.5957 5.44156 26.7441 5.58992 26.9271 5.58992Z" fill="url(#paint25_linear_1_771)"/>
<path d="M23.2044 6.67391C23.3874 6.67391 23.5358 6.52555 23.5358 6.34254C23.5358 6.15952 23.3874 6.01115 23.2044 6.01115C23.0214 6.01115 22.873 6.15952 22.873 6.34254C22.873 6.52555 23.0214 6.67391 23.2044 6.67391Z" fill="url(#paint26_linear_1_771)"/>
<path d="M20.365 19.7802C23.7466 17.0054 29.4743 16.431 29.4743 16.431L29.6604 15.1528C29.6604 15.1528 22.881 15.9618 19.2891 19.0764C19.6774 19.3434 20.0333 19.578 20.365 19.7802Z" fill="url(#paint27_linear_1_771)"/>
<path d="M11.877 11.7876C12.1035 12.095 12.3543 12.4024 12.6212 12.726C13.3412 11.1404 13.1875 9.89452 13.1875 9.89452L12.3057 9.34441C12.3947 10.3233 12.0954 11.2617 11.877 11.7876Z" fill="url(#paint28_linear_1_771)"/>
<defs>
<linearGradient id="paint0_linear_1_771" x1="0.0398708" y1="10.542" x2="14.4786" y2="27.6526" gradientUnits="userSpaceOnUse">
<stop offset="0.2544" stop-color="#FBE07A"/>
<stop offset="1" stop-color="#FF40BF"/>
</linearGradient>
<linearGradient id="paint1_linear_1_771" x1="7.88614" y1="11.7943" x2="19.8682" y2="23.7764" gradientUnits="userSpaceOnUse">
<stop offset="0.2544" stop-color="#9F00E8"/>
<stop offset="1" stop-color="#7000A3"/>
</linearGradient>
<linearGradient id="paint2_linear_1_771" x1="4.56431" y1="18.3174" x2="12.8743" y2="26.6274" gradientUnits="userSpaceOnUse">
<stop offset="0.2544" stop-color="#9F00E8"/>
<stop offset="1" stop-color="#7000A3"/>
</linearGradient>
<linearGradient id="paint3_linear_1_771" x1="2.05295" y1="23.7696" x2="7.31201" y2="29.0286" gradientUnits="userSpaceOnUse">
<stop offset="0.2544" stop-color="#9F00E8"/>
<stop offset="1" stop-color="#7000A3"/>
</linearGradient>
<radialGradient id="paint4_radial_1_771" cx="0" cy="0" r="1" gradientUnits="userSpaceOnUse" gradientTransform="translate(7.8636 16.2673) rotate(119.598) scale(8.28891 2.53764)">
<stop stop-color="white" stop-opacity="0.5"/>
<stop offset="1" stop-color="white" stop-opacity="0"/>
</radialGradient>
<radialGradient id="paint5_radial_1_771" cx="0" cy="0" r="1" gradientUnits="userSpaceOnUse" gradientTransform="translate(13.6884 23.6977) rotate(151.7) scale(13.1395 4.09807)">
<stop stop-color="#440063" stop-opacity="0.75"/>
<stop offset="1" stop-color="#420061" stop-opacity="0"/>
</radialGradient>
<linearGradient id="paint6_linear_1_771" x1="15.8717" y1="7.75575" x2="17.8574" y2="7.12156" gradientUnits="userSpaceOnUse">
<stop stop-color="#BD2719"/>
<stop offset="1" stop-color="#FF4E0D"/>
</linearGradient>
<linearGradient id="paint7_linear_1_771" x1="17.7174" y1="2.82873" x2="16.8283" y2="0.619881" gradientUnits="userSpaceOnUse">
<stop stop-color="#BD2719"/>
<stop offset="1" stop-color="#FF4E0D"/>
</linearGradient>
<linearGradient id="paint8_linear_1_771" x1="27.6074" y1="9.57488" x2="24.2958" y2="7.45295" gradientUnits="userSpaceOnUse">
<stop stop-color="#FFCB4B"/>
<stop offset="1" stop-color="#E81CA2"/>
</linearGradient>
<linearGradient id="paint9_linear_1_771" x1="19.1219" y1="5.24709" x2="11.7227" y2="28.5751" gradientUnits="userSpaceOnUse">
<stop offset="0.2544" stop-color="#FBE07A"/>
<stop offset="1" stop-color="#E81CA2"/>
</linearGradient>
<linearGradient id="paint10_linear_1_771" x1="21.5512" y1="10.6022" x2="10.1955" y2="18.5666" gradientUnits="userSpaceOnUse">
<stop stop-color="#FBE07A"/>
<stop offset="1" stop-color="white"/>
</linearGradient>
<linearGradient id="paint11_linear_1_771" x1="12.4103" y1="2.50761" x2="16.0778" y2="2.45204" gradientUnits="userSpaceOnUse">
<stop stop-color="#BD2719"/>
<stop offset="1" stop-color="#FF4E0D"/>
</linearGradient>
<linearGradient id="paint12_linear_1_771" x1="21.0439" y1="15.1552" x2="20.1619" y2="16.7376" gradientUnits="userSpaceOnUse">
<stop stop-color="#FF9214"/>
<stop offset="1" stop-color="#FF4E0D"/>
</linearGradient>
<linearGradient id="paint13_linear_1_771" x1="10.7409" y1="2.99074" x2="12.0745" y2="6.80643" gradientUnits="userSpaceOnUse">
<stop stop-color="#80DAFE"/>
<stop offset="1" stop-color="#008EE6"/>
</linearGradient>
<linearGradient id="paint14_linear_1_771" x1="24.3693" y1="10.4054" x2="24.064" y2="6.55634" gradientUnits="userSpaceOnUse">
<stop stop-color="#FFCB4B"/>
<stop offset="1" stop-color="#E81CA2"/>
</linearGradient>
<linearGradient id="paint15_linear_1_771" x1="21.1374" y1="12.0279" x2="23.2642" y2="12.3724" gradientUnits="userSpaceOnUse">
<stop stop-color="#FFCB4B"/>
<stop offset="1" stop-color="#E81CA2"/>
</linearGradient>
<linearGradient id="paint16_linear_1_771" x1="19.6749" y1="4.83391" x2="16.5199" y2="17.8177" gradientUnits="userSpaceOnUse">
<stop offset="0.2544" stop-color="#E100FF"/>
<stop offset="1" stop-color="#7000A3"/>
</linearGradient>
<linearGradient id="paint17_linear_1_771" x1="13.4702" y1="2.70641" x2="15.804" y2="6.5962" gradientUnits="userSpaceOnUse">
<stop stop-color="#FF9214"/>
<stop offset="1" stop-color="#FF4E0D"/>
</linearGradient>
<linearGradient id="paint18_linear_1_771" x1="15.969" y1="13.3846" x2="17.2274" y2="17.0857" gradientUnits="userSpaceOnUse">
<stop stop-color="#FFCB4B"/>
<stop offset="1" stop-color="#E81CA2"/>
</linearGradient>
<linearGradient id="paint19_linear_1_771" x1="20.213" y1="-0.193012" x2="22.2856" y2="3.21201" gradientUnits="userSpaceOnUse">
<stop stop-color="#FBE07A"/>
<stop offset="1" stop-color="#E81CA2"/>
</linearGradient>
<linearGradient id="paint20_linear_1_771" x1="18.0573" y1="6.0947" x2="18.5755" y2="8.05627" gradientUnits="userSpaceOnUse">
<stop stop-color="#80DAFE"/>
<stop offset="1" stop-color="#008EE6"/>
</linearGradient>
<linearGradient id="paint21_linear_1_771" x1="19.8502" y1="11.7245" x2="20.1665" y2="12.6293" gradientUnits="userSpaceOnUse">
<stop stop-color="#80DAFE"/>
<stop offset="1" stop-color="#008EE6"/>
</linearGradient>
<linearGradient id="paint22_linear_1_771" x1="28.8393" y1="10.7711" x2="28.2472" y2="12.6586" gradientUnits="userSpaceOnUse">
<stop stop-color="#FFCB4B"/>
<stop offset="1" stop-color="#E81CA2"/>
</linearGradient>
<linearGradient id="paint23_linear_1_771" x1="26.39" y1="16.4249" x2="26.575" y2="20.4591" gradientUnits="userSpaceOnUse">
<stop stop-color="#FFCB4B"/>
<stop offset="1" stop-color="#E81CA2"/>
</linearGradient>
<linearGradient id="paint24_linear_1_771" x1="24.8875" y1="13.6447" x2="25.2038" y2="14.5496" gradientUnits="userSpaceOnUse">
<stop offset="0.2544" stop-color="#9F00E8"/>
<stop offset="1" stop-color="#7000A3"/>
</linearGradient>
<linearGradient id="paint25_linear_1_771" x1="27.5704" y1="4.15425" x2="26.3491" y2="6.26389" gradientUnits="userSpaceOnUse">
<stop stop-color="#80DAFE"/>
<stop offset="1" stop-color="#008EE6"/>
</linearGradient>
<linearGradient id="paint26_linear_1_771" x1="23.1189" y1="5.87234" x2="23.5261" y2="8.13002" gradientUnits="userSpaceOnUse">
<stop stop-color="#FF9214"/>
<stop offset="1" stop-color="#FF4E0D"/>
</linearGradient>
<linearGradient id="paint27_linear_1_771" x1="16.9965" y1="17.2989" x2="28.8078" y2="17.5416" gradientUnits="userSpaceOnUse">
<stop stop-color="#80DAFE"/>
<stop offset="1" stop-color="#008EE6"/>
</linearGradient>
<linearGradient id="paint28_linear_1_771" x1="10.4698" y1="15.9854" x2="13.3013" y2="8.94714" gradientUnits="userSpaceOnUse">
<stop stop-color="#FBE07A"/>
<stop offset="1" stop-color="#E81CA2"/>
</linearGradient>
</defs>
</svg>
